<mxfile host="app.diagrams.net" modified="2024-04-13T18:52:34.152Z" agent="Mozilla/5.0 (Windows NT 10.0; Win64; x64) AppleWebKit/537.36 (KHTML, like Gecko) Chrome/123.0.0.0 Safari/537.36" etag="kwkVND8uFSx_m_gMO5hQ" version="24.2.3" type="device">
  <diagram name="Stránka-1" id="mo5Vfg_N1rmYIE_elHbk">
    <mxGraphModel dx="2298" dy="-109" grid="1" gridSize="10" guides="1" tooltips="1" connect="1" arrows="1" fold="1" page="1" pageScale="1" pageWidth="850" pageHeight="1100" math="0" shadow="0">
      <root>
        <mxCell id="0" />
        <mxCell id="1" parent="0" />
        <mxCell id="4ENFp02yk-LtwZQvsc4u-15" style="edgeStyle=orthogonalEdgeStyle;rounded=0;orthogonalLoop=1;jettySize=auto;html=1;entryX=0.5;entryY=0;entryDx=0;entryDy=0;" edge="1" parent="1" source="4ENFp02yk-LtwZQvsc4u-1" target="4ENFp02yk-LtwZQvsc4u-4">
          <mxGeometry relative="1" as="geometry" />
        </mxCell>
        <mxCell id="4ENFp02yk-LtwZQvsc4u-1" value="&lt;font face=&quot;Verdana&quot; style=&quot;font-size: 24px;&quot;&gt;&lt;b&gt;Start&lt;/b&gt;&lt;/font&gt;" style="strokeWidth=2;html=1;shape=mxgraph.flowchart.terminator;whiteSpace=wrap;fillColor=#0DFF15;" vertex="1" parent="1">
          <mxGeometry x="375" y="1150" width="100" height="60" as="geometry" />
        </mxCell>
        <mxCell id="4ENFp02yk-LtwZQvsc4u-2" value="&lt;font face=&quot;Verdana&quot; style=&quot;font-size: 24px;&quot;&gt;&lt;b&gt;Konec&lt;/b&gt;&lt;/font&gt;" style="strokeWidth=2;html=1;shape=mxgraph.flowchart.terminator;whiteSpace=wrap;fillColor=#EA6B66;" vertex="1" parent="1">
          <mxGeometry x="375.87" y="1910.0000000000002" width="100" height="60" as="geometry" />
        </mxCell>
        <mxCell id="4ENFp02yk-LtwZQvsc4u-33" style="edgeStyle=orthogonalEdgeStyle;rounded=0;orthogonalLoop=1;jettySize=auto;html=1;entryX=0.5;entryY=0;entryDx=0;entryDy=0;" edge="1" parent="1" source="4ENFp02yk-LtwZQvsc4u-3" target="4ENFp02yk-LtwZQvsc4u-19">
          <mxGeometry relative="1" as="geometry" />
        </mxCell>
        <mxCell id="4ENFp02yk-LtwZQvsc4u-3" value="&lt;font style=&quot;font-size: 16px;&quot; face=&quot;Verdana&quot;&gt;&lt;b style=&quot;&quot;&gt;limit = obtížnost&lt;/b&gt;&lt;/font&gt;" style="rounded=0;whiteSpace=wrap;html=1;" vertex="1" parent="1">
          <mxGeometry x="327.75" y="1430" width="193.75" height="60" as="geometry" />
        </mxCell>
        <mxCell id="4ENFp02yk-LtwZQvsc4u-16" style="edgeStyle=orthogonalEdgeStyle;rounded=0;orthogonalLoop=1;jettySize=auto;html=1;entryX=0;entryY=0.5;entryDx=0;entryDy=0;" edge="1" parent="1" source="4ENFp02yk-LtwZQvsc4u-4" target="4ENFp02yk-LtwZQvsc4u-12">
          <mxGeometry relative="1" as="geometry" />
        </mxCell>
        <mxCell id="4ENFp02yk-LtwZQvsc4u-18" style="edgeStyle=orthogonalEdgeStyle;rounded=0;orthogonalLoop=1;jettySize=auto;html=1;entryX=0.5;entryY=0;entryDx=0;entryDy=0;" edge="1" parent="1" source="4ENFp02yk-LtwZQvsc4u-4" target="4ENFp02yk-LtwZQvsc4u-3">
          <mxGeometry relative="1" as="geometry" />
        </mxCell>
        <mxCell id="4ENFp02yk-LtwZQvsc4u-4" value="&lt;font style=&quot;font-size: 18px;&quot; face=&quot;Verdana&quot;&gt;&lt;b style=&quot;&quot;&gt;Byl nastaven&lt;br&gt;&amp;nbsp;counter ?&lt;/b&gt;&lt;/font&gt;" style="rhombus;whiteSpace=wrap;html=1;" vertex="1" parent="1">
          <mxGeometry x="329" y="1270" width="192.5" height="118.46" as="geometry" />
        </mxCell>
        <mxCell id="4ENFp02yk-LtwZQvsc4u-5" value="&lt;font style=&quot;font-size: 14px;&quot;&gt;&lt;b&gt;NE&lt;/b&gt;&lt;/font&gt;" style="text;html=1;align=center;verticalAlign=middle;whiteSpace=wrap;rounded=0;" vertex="1" parent="1">
          <mxGeometry x="510" y="1299.23" width="60" height="30" as="geometry" />
        </mxCell>
        <mxCell id="4ENFp02yk-LtwZQvsc4u-6" value="&lt;font style=&quot;font-size: 14px;&quot;&gt;&lt;b&gt;ANO&lt;/b&gt;&lt;/font&gt;" style="text;html=1;align=center;verticalAlign=middle;whiteSpace=wrap;rounded=0;" vertex="1" parent="1">
          <mxGeometry x="425" y="1380" width="60" height="30" as="geometry" />
        </mxCell>
        <mxCell id="4ENFp02yk-LtwZQvsc4u-12" value="&lt;font style=&quot;font-size: 18px;&quot; face=&quot;Verdana&quot;&gt;&lt;b style=&quot;&quot;&gt;counter = 0&lt;/b&gt;&lt;/font&gt;" style="rounded=0;whiteSpace=wrap;html=1;" vertex="1" parent="1">
          <mxGeometry x="570" y="1299.23" width="140" height="60" as="geometry" />
        </mxCell>
        <mxCell id="4ENFp02yk-LtwZQvsc4u-17" style="edgeStyle=orthogonalEdgeStyle;rounded=0;orthogonalLoop=1;jettySize=auto;html=1;entryX=1;entryY=0.5;entryDx=0;entryDy=0;entryPerimeter=0;" edge="1" parent="1" source="4ENFp02yk-LtwZQvsc4u-12" target="4ENFp02yk-LtwZQvsc4u-1">
          <mxGeometry relative="1" as="geometry">
            <Array as="points">
              <mxPoint x="640" y="1180" />
            </Array>
          </mxGeometry>
        </mxCell>
        <mxCell id="4ENFp02yk-LtwZQvsc4u-23" style="edgeStyle=orthogonalEdgeStyle;rounded=0;orthogonalLoop=1;jettySize=auto;html=1;entryX=0;entryY=0.5;entryDx=0;entryDy=0;" edge="1" parent="1" source="4ENFp02yk-LtwZQvsc4u-19" target="4ENFp02yk-LtwZQvsc4u-22">
          <mxGeometry relative="1" as="geometry" />
        </mxCell>
        <mxCell id="4ENFp02yk-LtwZQvsc4u-27" style="edgeStyle=orthogonalEdgeStyle;rounded=0;orthogonalLoop=1;jettySize=auto;html=1;entryX=0.5;entryY=0;entryDx=0;entryDy=0;" edge="1" parent="1" source="4ENFp02yk-LtwZQvsc4u-19" target="4ENFp02yk-LtwZQvsc4u-26">
          <mxGeometry relative="1" as="geometry" />
        </mxCell>
        <mxCell id="4ENFp02yk-LtwZQvsc4u-19" value="&lt;font face=&quot;Verdana&quot;&gt;&lt;span style=&quot;font-size: 18px;&quot;&gt;&lt;b&gt;Umřela&amp;nbsp;&lt;/b&gt;&lt;/span&gt;&lt;/font&gt;&lt;div&gt;&lt;font face=&quot;Verdana&quot;&gt;&lt;span style=&quot;font-size: 18px;&quot;&gt;&lt;b&gt;postava ?&lt;/b&gt;&lt;/span&gt;&lt;/font&gt;&lt;/div&gt;" style="rhombus;whiteSpace=wrap;html=1;" vertex="1" parent="1">
          <mxGeometry x="329" y="1530.77" width="192.5" height="118.46" as="geometry" />
        </mxCell>
        <mxCell id="4ENFp02yk-LtwZQvsc4u-21" value="&lt;font style=&quot;font-size: 14px;&quot;&gt;&lt;b&gt;ANO&lt;/b&gt;&lt;/font&gt;" style="text;html=1;align=center;verticalAlign=middle;whiteSpace=wrap;rounded=0;" vertex="1" parent="1">
          <mxGeometry x="510" y="1560" width="60" height="30" as="geometry" />
        </mxCell>
        <mxCell id="4ENFp02yk-LtwZQvsc4u-36" style="edgeStyle=orthogonalEdgeStyle;rounded=0;orthogonalLoop=1;jettySize=auto;html=1;entryX=1;entryY=0.5;entryDx=0;entryDy=0;" edge="1" parent="1" source="4ENFp02yk-LtwZQvsc4u-22" target="4ENFp02yk-LtwZQvsc4u-26">
          <mxGeometry relative="1" as="geometry">
            <Array as="points">
              <mxPoint x="677" y="1730" />
            </Array>
          </mxGeometry>
        </mxCell>
        <mxCell id="4ENFp02yk-LtwZQvsc4u-22" value="&lt;font style=&quot;font-size: 16px;&quot; face=&quot;Verdana&quot;&gt;&lt;b style=&quot;&quot;&gt;counter++&lt;/b&gt;&lt;/font&gt;" style="rounded=0;whiteSpace=wrap;html=1;" vertex="1" parent="1">
          <mxGeometry x="580" y="1560" width="193.75" height="60" as="geometry" />
        </mxCell>
        <mxCell id="4ENFp02yk-LtwZQvsc4u-25" value="&lt;font style=&quot;font-size: 14px;&quot;&gt;&lt;b&gt;NE&lt;/b&gt;&lt;/font&gt;" style="text;html=1;align=center;verticalAlign=middle;whiteSpace=wrap;rounded=0;" vertex="1" parent="1">
          <mxGeometry x="425" y="1635" width="60" height="30" as="geometry" />
        </mxCell>
        <mxCell id="4ENFp02yk-LtwZQvsc4u-32" style="edgeStyle=orthogonalEdgeStyle;rounded=0;orthogonalLoop=1;jettySize=auto;html=1;entryX=0.5;entryY=0;entryDx=0;entryDy=0;" edge="1" parent="1" source="4ENFp02yk-LtwZQvsc4u-26" target="4ENFp02yk-LtwZQvsc4u-29">
          <mxGeometry relative="1" as="geometry" />
        </mxCell>
        <mxCell id="4ENFp02yk-LtwZQvsc4u-26" value="&lt;font style=&quot;font-size: 16px;&quot; face=&quot;Verdana&quot;&gt;&lt;b style=&quot;&quot;&gt;strach = counter/limit&lt;/b&gt;&lt;/font&gt;" style="rounded=0;whiteSpace=wrap;html=1;" vertex="1" parent="1">
          <mxGeometry x="329" y="1700" width="193.75" height="60" as="geometry" />
        </mxCell>
        <mxCell id="4ENFp02yk-LtwZQvsc4u-29" value="&lt;font style=&quot;font-size: 16px;&quot; face=&quot;Verdana&quot;&gt;&lt;b style=&quot;&quot;&gt;Zvyš strach&lt;/b&gt;&lt;/font&gt;" style="rounded=0;whiteSpace=wrap;html=1;" vertex="1" parent="1">
          <mxGeometry x="329" y="1800" width="193.75" height="60" as="geometry" />
        </mxCell>
        <mxCell id="4ENFp02yk-LtwZQvsc4u-31" style="edgeStyle=orthogonalEdgeStyle;rounded=0;orthogonalLoop=1;jettySize=auto;html=1;entryX=0.5;entryY=0;entryDx=0;entryDy=0;entryPerimeter=0;" edge="1" parent="1" source="4ENFp02yk-LtwZQvsc4u-29" target="4ENFp02yk-LtwZQvsc4u-2">
          <mxGeometry relative="1" as="geometry" />
        </mxCell>
      </root>
    </mxGraphModel>
  </diagram>
</mxfile>
